<svg width="18" height="18" viewBox="0 0 18 18" fill="none" xmlns="http://www.w3.org/2000/svg">
<g id="24-7 1" clip-path="url(#clip0_4229_5249)">
<g id="Group">
<g id="Group_2">
<g id="Group_3">
<path id="Vector" d="M9.67514 6.47998L7.88379 10.9839" stroke="#595959" stroke-miterlimit="10" stroke-linecap="round" stroke-linejoin="round"/>
</g>
<g id="Group_4">
<path id="Vector_2" d="M10.6206 9.31787H13.0983L11.1185 13.8217" stroke="#595959" stroke-miterlimit="10" stroke-linecap="round" stroke-linejoin="round"/>
</g>
<g id="Group_5">
<g id="Group_6">
<path id="Vector_3" d="M7.2477 7.28445H4.41943C4.41943 7.28445 5.91689 4.57015 6.164 4.26696C6.41388 3.96039 6.65049 4.15161 6.67303 4.42203C6.69557 4.69245 6.66176 8.61372 6.66176 8.61372" stroke="#595959" stroke-miterlimit="10" stroke-linecap="round" stroke-linejoin="round"/>
</g>
<g id="Group_7">
<path id="Vector_4" d="M3.16705 8.69149C3.16705 8.69149 0.975728 8.71902 0.871956 8.68444C0.76815 8.64982 1.03837 8.46706 2.47506 6.41432C2.74337 6.03097 2.89105 5.70755 2.95389 5.43656L2.97616 5.26233C2.97616 4.62585 2.46018 4.10986 1.8237 4.10986C1.26364 4.10986 0.796877 4.50937 0.692871 5.03893" stroke="#595959" stroke-miterlimit="10" stroke-linecap="round" stroke-linejoin="round"/>
</g>
</g>
</g>
<g id="Group_8">
<path id="Vector_5" d="M1.29785 10.917C1.8319 12.9661 3.19749 14.7901 5.22341 15.8454C6.84162 16.6883 8.62027 16.9049 10.2823 16.5825" stroke="#595959" stroke-miterlimit="10" stroke-linecap="round" stroke-linejoin="round" stroke-dasharray="34.84 69.67"/>
<g id="Group_9">
<path id="Vector_6" d="M12.1753 15.9556C13.6342 15.2547 14.887 14.0933 15.6923 12.5475C17.6726 8.74579 16.1961 4.05858 12.3944 2.07825C10.2182 0.944612 7.75171 0.943776 5.66895 1.86345" stroke="#595959" stroke-miterlimit="10" stroke-linecap="round" stroke-linejoin="round"/>
<path id="Vector_7" d="M6.45507 0.524902L5.37695 1.99985L7.15332 2.42691" stroke="#595959" stroke-miterlimit="10" stroke-linecap="round" stroke-linejoin="round"/>
</g>
</g>
</g>
</g>
<defs>
<clipPath id="clip0_4229_5249">
<rect width="18" height="18" fill="white"/>
</clipPath>
</defs>
</svg>
